<?xml version="1.0" encoding="UTF-8" standalone="no"?>
<!DOCTYPE svg PUBLIC "-//W3C//DTD SVG 1.1//EN"
 "http://www.w3.org/Graphics/SVG/1.1/DTD/svg11.dtd">
<!-- Generated by graphviz version 2.40.1 (20161225.0304)
 -->
<!-- Title: state transitions Pages: 1 -->
<svg width="405pt" height="352pt"
 viewBox="0.00 0.00 405.00 352.00" xmlns="http://www.w3.org/2000/svg" xmlns:xlink="http://www.w3.org/1999/xlink">
<g id="graph0" class="graph" transform="scale(1 1) rotate(0) translate(4 348)">
<title>state transitions</title>
<polygon fill="#ffffff" stroke="transparent" points="-4,4 -4,-348 401,-348 401,4 -4,4"/>
<g id="clust1" class="cluster state regular">
<title>cluster_h_state</title>
<path fill="none" stroke="#000000" stroke-width="2" d="M20,-8C20,-8 377,-8 377,-8 383,-8 389,-14 389,-20 389,-20 389,-324 389,-324 389,-330 383,-336 377,-336 377,-336 20,-336 20,-336 14,-336 8,-330 8,-324 8,-324 8,-20 8,-20 8,-14 14,-8 20,-8"/>
<text text-anchor="start" x="179.3236" y="-317.2" font-family="Helvetica,sans-Serif" font-size="12.00" fill="#000000">h_state</text>
</g>
<!-- h_state -->
<!-- S_H_SYNC -->
<g id="node2" class="node state regular">
<title>S_H_SYNC</title>
<polygon fill="#ffffff" fill-opacity="0.003922" stroke="transparent" stroke-width="2" points="204.5,-298 119.5,-298 119.5,-262 204.5,-262 204.5,-298"/>
<text text-anchor="start" x="130.8308" y="-276.2" font-family="Helvetica,sans-Serif" font-size="12.00" fill="#000000">S_H_SYNC</text>
<path fill="none" stroke="#000000" stroke-width="2" d="M131.8333,-263C131.8333,-263 192.1667,-263 192.1667,-263 197.8333,-263 203.5,-268.6667 203.5,-274.3333 203.5,-274.3333 203.5,-285.6667 203.5,-285.6667 203.5,-291.3333 197.8333,-297 192.1667,-297 192.1667,-297 131.8333,-297 131.8333,-297 126.1667,-297 120.5,-291.3333 120.5,-285.6667 120.5,-285.6667 120.5,-274.3333 120.5,-274.3333 120.5,-268.6667 126.1667,-263 131.8333,-263"/>
</g>
<!-- S_H_BACK_PORCH -->
<g id="node3" class="node state regular">
<title>S_H_BACK_PORCH</title>
<polygon fill="#ffffff" fill-opacity="0.003922" stroke="transparent" stroke-width="2" points="158,-216 24,-216 24,-180 158,-180 158,-216"/>
<text text-anchor="start" x="34.6624" y="-194.2" font-family="Helvetica,sans-Serif" font-size="12.00" fill="#000000">S_H_BACK_PORCH</text>
<path fill="none" stroke="#000000" stroke-width="2" d="M36.3333,-181C36.3333,-181 145.6667,-181 145.6667,-181 151.3333,-181 157,-186.6667 157,-192.3333 157,-192.3333 157,-203.6667 157,-203.6667 157,-209.3333 151.3333,-215 145.6667,-215 145.6667,-215 36.3333,-215 36.3333,-215 30.6667,-215 25,-209.3333 25,-203.6667 25,-203.6667 25,-192.3333 25,-192.3333 25,-186.6667 30.6667,-181 36.3333,-181"/>
</g>
<!-- S_H_SYNC&#45;&gt;S_H_BACK_PORCH -->
<g id="edge1" class="edge transition">
<title>S_H_SYNC&#45;&gt;S_H_BACK_PORCH</title>
<path fill="none" stroke="#000000" d="M134.7142,-261.6542C128.4466,-256.6958 122.1188,-251.0202 116.971,-245 111.8893,-239.0571 107.3496,-231.9632 103.5423,-225.1104"/>
<polygon fill="#000000" stroke="#000000" points="106.5452,-223.299 98.8223,-216.0459 100.3365,-226.532 106.5452,-223.299"/>
<text text-anchor="start" x="116" y="-236" font-family="Helvetica,sans-Serif" font-size="10.00" fill="#000000">h_cnt == H_SYNC &#45; 1 &#160;&#160;</text>
</g>
<!-- S_H_VALID -->
<g id="node4" class="node state regular">
<title>S_H_VALID</title>
<polygon fill="#ffffff" fill-opacity="0.003922" stroke="transparent" stroke-width="2" points="112,-134 26,-134 26,-98 112,-98 112,-134"/>
<text text-anchor="start" x="36.6594" y="-112.2" font-family="Helvetica,sans-Serif" font-size="12.00" fill="#000000">S_H_VALID</text>
<path fill="none" stroke="#000000" stroke-width="2" d="M38.3333,-99C38.3333,-99 99.6667,-99 99.6667,-99 105.3333,-99 111,-104.6667 111,-110.3333 111,-110.3333 111,-121.6667 111,-121.6667 111,-127.3333 105.3333,-133 99.6667,-133 99.6667,-133 38.3333,-133 38.3333,-133 32.6667,-133 27,-127.3333 27,-121.6667 27,-121.6667 27,-110.3333 27,-110.3333 27,-104.6667 32.6667,-99 38.3333,-99"/>
</g>
<!-- S_H_BACK_PORCH&#45;&gt;S_H_VALID -->
<g id="edge2" class="edge transition">
<title>S_H_BACK_PORCH&#45;&gt;S_H_VALID</title>
<path fill="none" stroke="#000000" d="M66.733,-179.8664C61.9082,-174.9731 57.5147,-169.2733 54.857,-163 52.283,-156.9242 52.5602,-150.2236 54.1994,-143.8322"/>
<polygon fill="#000000" stroke="#000000" points="57.5812,-144.7715 57.6821,-134.1772 50.9965,-142.3963 57.5812,-144.7715"/>
<text text-anchor="start" x="54" y="-154" font-family="Helvetica,sans-Serif" font-size="10.00" fill="#000000">h_cnt == H_BACK_PORCH &#45; 1 &#160;&#160;</text>
</g>
<!-- S_H_FRONT_PORCH -->
<g id="node5" class="node state regular">
<title>S_H_FRONT_PORCH</title>
<polygon fill="#ffffff" fill-opacity="0.003922" stroke="transparent" stroke-width="2" points="229.5,-52 86.5,-52 86.5,-16 229.5,-16 229.5,-52"/>
<text text-anchor="start" x="97.837" y="-30.2" font-family="Helvetica,sans-Serif" font-size="12.00" fill="#000000">S_H_FRONT_PORCH</text>
<path fill="none" stroke="#000000" stroke-width="2" d="M98.8333,-17C98.8333,-17 217.1667,-17 217.1667,-17 222.8333,-17 228.5,-22.6667 228.5,-28.3333 228.5,-28.3333 228.5,-39.6667 228.5,-39.6667 228.5,-45.3333 222.8333,-51 217.1667,-51 217.1667,-51 98.8333,-51 98.8333,-51 93.1667,-51 87.5,-45.3333 87.5,-39.6667 87.5,-39.6667 87.5,-28.3333 87.5,-28.3333 87.5,-22.6667 93.1667,-17 98.8333,-17"/>
</g>
<!-- S_H_VALID&#45;&gt;S_H_FRONT_PORCH -->
<g id="edge3" class="edge transition">
<title>S_H_VALID&#45;&gt;S_H_FRONT_PORCH</title>
<path fill="none" stroke="#000000" d="M86.4133,-97.7432C95.0735,-88.869 105.8122,-78.1671 115.852,-69 119.6186,-65.5608 123.6566,-62.0267 127.687,-58.5884"/>
<polygon fill="#000000" stroke="#000000" points="129.9511,-61.2575 135.355,-52.1444 125.4475,-55.8986 129.9511,-61.2575"/>
<text text-anchor="start" x="115" y="-72" font-family="Helvetica,sans-Serif" font-size="10.00" fill="#000000">h_cnt == H_VALID &#45; 1 &#160;&#160;</text>
</g>
<!-- S_H_FRONT_PORCH&#45;&gt;S_H_SYNC -->
<g id="edge4" class="edge transition">
<title>S_H_FRONT_PORCH&#45;&gt;S_H_SYNC</title>
<path fill="none" stroke="#000000" d="M215.4854,-52.1141C222.9147,-57.8242 228,-65.2821 228,-75 228,-239 228,-239 228,-239 228,-249.529 221.8643,-257.4489 213.3345,-263.372"/>
<polygon fill="#000000" stroke="#000000" points="211.4468,-260.4206 204.545,-268.459 214.9532,-266.4791 211.4468,-260.4206"/>
<text text-anchor="start" x="228" y="-154" font-family="Helvetica,sans-Serif" font-size="10.00" fill="#000000">h_cnt == H_FRONT_PORCH &#45; 1 &#160;&#160;</text>
</g>
</g>
</svg>
