<?xml version="1.0" encoding="UTF-8" standalone="no"?>
<!DOCTYPE svg PUBLIC "-//W3C//DTD SVG 1.1//EN"
 "http://www.w3.org/Graphics/SVG/1.1/DTD/svg11.dtd">
<!-- Generated by graphviz version 2.40.1 (20161225.0304)
 -->
<!-- Title: state transitions Pages: 1 -->
<svg width="752pt" height="388pt"
 viewBox="0.00 0.00 752.00 388.00" xmlns="http://www.w3.org/2000/svg" xmlns:xlink="http://www.w3.org/1999/xlink">
<g id="graph0" class="graph" transform="scale(1 1) rotate(0) translate(4 384)">
<title>state transitions</title>
<polygon fill="#ffffff" stroke="transparent" points="-4,4 -4,-384 748,-384 748,4 -4,4"/>
<g id="clust1" class="cluster state regular">
<title>cluster_v_state</title>
<path fill="none" stroke="#000000" stroke-width="2" d="M20,-8C20,-8 724,-8 724,-8 730,-8 736,-14 736,-20 736,-20 736,-360 736,-360 736,-366 730,-372 724,-372 724,-372 20,-372 20,-372 14,-372 8,-366 8,-360 8,-360 8,-20 8,-20 8,-14 14,-8 20,-8"/>
<text text-anchor="start" x="352.659" y="-353.2" font-family="Helvetica,sans-Serif" font-size="12.00" fill="#000000">v_state</text>
</g>
<!-- v_state -->
<!-- S_V_SYNC -->
<g id="node2" class="node state regular">
<title>S_V_SYNC</title>
<polygon fill="#ffffff" fill-opacity="0.003922" stroke="transparent" stroke-width="2" points="274,-334 190,-334 190,-298 274,-298 274,-334"/>
<text text-anchor="start" x="200.6608" y="-312.2" font-family="Helvetica,sans-Serif" font-size="12.00" fill="#000000">S_V_SYNC</text>
<path fill="none" stroke="#000000" stroke-width="2" d="M202.3333,-299C202.3333,-299 261.6667,-299 261.6667,-299 267.3333,-299 273,-304.6667 273,-310.3333 273,-310.3333 273,-321.6667 273,-321.6667 273,-327.3333 267.3333,-333 261.6667,-333 261.6667,-333 202.3333,-333 202.3333,-333 196.6667,-333 191,-327.3333 191,-321.6667 191,-321.6667 191,-310.3333 191,-310.3333 191,-304.6667 196.6667,-299 202.3333,-299"/>
</g>
<!-- S_V_BACK_PORCH -->
<g id="node3" class="node state regular">
<title>S_V_BACK_PORCH</title>
<polygon fill="#ffffff" fill-opacity="0.003922" stroke="transparent" stroke-width="2" points="150,-240 16,-240 16,-204 150,-204 150,-240"/>
<text text-anchor="start" x="26.9924" y="-218.2" font-family="Helvetica,sans-Serif" font-size="12.00" fill="#000000">S_V_BACK_PORCH</text>
<path fill="none" stroke="#000000" stroke-width="2" d="M28.3333,-205C28.3333,-205 137.6667,-205 137.6667,-205 143.3333,-205 149,-210.6667 149,-216.3333 149,-216.3333 149,-227.6667 149,-227.6667 149,-233.3333 143.3333,-239 137.6667,-239 137.6667,-239 28.3333,-239 28.3333,-239 22.6667,-239 17,-233.3333 17,-227.6667 17,-227.6667 17,-216.3333 17,-216.3333 17,-210.6667 22.6667,-205 28.3333,-205"/>
</g>
<!-- S_V_SYNC&#45;&gt;S_V_BACK_PORCH -->
<g id="edge1" class="edge transition">
<title>S_V_SYNC&#45;&gt;S_V_BACK_PORCH</title>
<path fill="none" stroke="#000000" d="M189.9284,-312.4232C148.5865,-307.9329 89.7047,-298.5892 75.617,-281 68.7216,-272.3907 68.8685,-260.6897 71.3803,-249.9777"/>
<polygon fill="#000000" stroke="#000000" points="74.8098,-250.729 74.3604,-240.1437 68.1106,-248.6988 74.8098,-250.729"/>
<text text-anchor="start" x="75" y="-272" font-family="Helvetica,sans-Serif" font-size="10.00" fill="#000000">v_cnt == V_SYNC &#45; 1 &#160;&#160;</text>
<text text-anchor="start" x="75" y="-260" font-family="Helvetica,sans-Serif" font-size="10.00" fill="#000000">h_cnt == H_FRONT_PORCH &#45; 1 &amp;&amp; h_state == S_H_FRONT_PORCH &#160;&#160;</text>
</g>
<!-- S_V_VALID -->
<g id="node4" class="node state regular">
<title>S_V_VALID</title>
<polygon fill="#ffffff" fill-opacity="0.003922" stroke="transparent" stroke-width="2" points="102,-146 16,-146 16,-110 102,-110 102,-146"/>
<text text-anchor="start" x="26.9894" y="-124.2" font-family="Helvetica,sans-Serif" font-size="12.00" fill="#000000">S_V_VALID</text>
<path fill="none" stroke="#000000" stroke-width="2" d="M28.3333,-111C28.3333,-111 89.6667,-111 89.6667,-111 95.3333,-111 101,-116.6667 101,-122.3333 101,-122.3333 101,-133.6667 101,-133.6667 101,-139.3333 95.3333,-145 89.6667,-145 89.6667,-145 28.3333,-145 28.3333,-145 22.6667,-145 17,-139.3333 17,-133.6667 17,-133.6667 17,-122.3333 17,-122.3333 17,-116.6667 22.6667,-111 28.3333,-111"/>
</g>
<!-- S_V_BACK_PORCH&#45;&gt;S_V_VALID -->
<g id="edge2" class="edge transition">
<title>S_V_BACK_PORCH&#45;&gt;S_V_VALID</title>
<path fill="none" stroke="#000000" d="M64.4585,-203.8524C60.4429,-198.8103 56.7605,-193.0464 54.617,-187 51.1528,-177.2283 51.1018,-165.99 52.3109,-155.9608"/>
<polygon fill="#000000" stroke="#000000" points="55.7702,-156.4942 53.9369,-146.0592 48.8627,-155.3598 55.7702,-156.4942"/>
<text text-anchor="start" x="54" y="-178" font-family="Helvetica,sans-Serif" font-size="10.00" fill="#000000">v_cnt == V_BACK_PORCH &#45; 1 &#160;&#160;</text>
<text text-anchor="start" x="54" y="-166" font-family="Helvetica,sans-Serif" font-size="10.00" fill="#000000">h_cnt == H_FRONT_PORCH &#45; 1 &amp;&amp; h_state == S_H_FRONT_PORCH &#160;&#160;</text>
</g>
<!-- S_V_FRONT_PORCH -->
<g id="node5" class="node state regular">
<title>S_V_FRONT_PORCH</title>
<polygon fill="#ffffff" fill-opacity="0.003922" stroke="transparent" stroke-width="2" points="317,-52 175,-52 175,-16 317,-16 317,-52"/>
<text text-anchor="start" x="185.667" y="-30.2" font-family="Helvetica,sans-Serif" font-size="12.00" fill="#000000">S_V_FRONT_PORCH</text>
<path fill="none" stroke="#000000" stroke-width="2" d="M187.3333,-17C187.3333,-17 304.6667,-17 304.6667,-17 310.3333,-17 316,-22.6667 316,-28.3333 316,-28.3333 316,-39.6667 316,-39.6667 316,-45.3333 310.3333,-51 304.6667,-51 304.6667,-51 187.3333,-51 187.3333,-51 181.6667,-51 176,-45.3333 176,-39.6667 176,-39.6667 176,-28.3333 176,-28.3333 176,-22.6667 181.6667,-17 187.3333,-17"/>
</g>
<!-- S_V_VALID&#45;&gt;S_V_FRONT_PORCH -->
<g id="edge3" class="edge transition">
<title>S_V_VALID&#45;&gt;S_V_FRONT_PORCH</title>
<path fill="none" stroke="#000000" d="M59.3171,-109.9967C60.5433,-96.8021 64.3988,-79.439 75.617,-69 88.9034,-56.6365 127.2752,-48.1671 164.2467,-42.6605"/>
<polygon fill="#000000" stroke="#000000" points="165.2082,-46.0591 174.6154,-41.1852 164.2221,-39.1289 165.2082,-46.0591"/>
<text text-anchor="start" x="75" y="-84" font-family="Helvetica,sans-Serif" font-size="10.00" fill="#000000">v_cnt == V_VALID &#45; 1 &#160;&#160;</text>
<text text-anchor="start" x="75" y="-72" font-family="Helvetica,sans-Serif" font-size="10.00" fill="#000000">h_cnt == H_FRONT_PORCH &#45; 1 &amp;&amp; h_state == S_H_FRONT_PORCH &#160;&#160;</text>
</g>
<!-- S_V_FRONT_PORCH&#45;&gt;S_V_SYNC -->
<g id="edge4" class="edge transition">
<title>S_V_FRONT_PORCH&#45;&gt;S_V_SYNC</title>
<path fill="none" stroke="#000000" d="M317.0641,-43.7315C351.0456,-49.6366 387.1004,-58.1405 400,-69 404.4201,-72.721 405,-75.2222 405,-81 405,-269 405,-269 405,-269 405,-274.7778 404.4535,-277.3191 400,-281 382.5668,-295.4088 326.7194,-305.0375 284.1551,-310.4878"/>
<polygon fill="#000000" stroke="#000000" points="283.6959,-307.0178 274.2009,-311.7184 284.5548,-313.965 283.6959,-307.0178"/>
<text text-anchor="start" x="405" y="-178" font-family="Helvetica,sans-Serif" font-size="10.00" fill="#000000">v_cnt == V_FRONT_PORCH &#45; 1 &#160;&#160;</text>
<text text-anchor="start" x="405" y="-166" font-family="Helvetica,sans-Serif" font-size="10.00" fill="#000000">h_cnt == H_FRONT_PORCH &#45; 1 &amp;&amp; h_state == S_H_FRONT_PORCH &#160;&#160;</text>
</g>
</g>
</svg>
